<?xml version="1.0" encoding="UTF-8" standalone="no"?>
<!-- Created with Inkscape (http://www.inkscape.org/) -->

<svg
   xmlns:dc="http://purl.org/dc/elements/1.1/"
   xmlns:cc="http://creativecommons.org/ns#"
   xmlns:rdf="http://www.w3.org/1999/02/22-rdf-syntax-ns#"
   xmlns:svg="http://www.w3.org/2000/svg"
   xmlns="http://www.w3.org/2000/svg"
   xmlns:xlink="http://www.w3.org/1999/xlink"
   xmlns:sodipodi="http://sodipodi.sourceforge.net/DTD/sodipodi-0.dtd"
   xmlns:inkscape="http://www.inkscape.org/namespaces/inkscape"
   id="svg3135"
   version="1.1"
   inkscape:version="0.92.2 (5c3e80d, 2017-08-06)"
   width="1000"
   height="592.672"
   xml:space="preserve"
   sodipodi:docname="Pfizer 1990.svg"><metadata
     id="metadata3141"><rdf:RDF><cc:Work
         rdf:about=""><dc:format>image/svg+xml</dc:format><dc:type
           rdf:resource="http://purl.org/dc/dcmitype/StillImage" /><dc:title></dc:title></cc:Work></rdf:RDF></metadata><defs
     id="defs3139"><linearGradient
       id="linearGradient3499"><stop
         style="stop-color:#00adec;stop-opacity:1"
         offset="0"
         id="stop3501" /><stop
         id="stop3513"
         offset="0.2"
         style="stop-color:#00abeb;stop-opacity:1" /><stop
         id="stop3511"
         offset="0.40000001"
         style="stop-color:#009fe3;stop-opacity:1" /><stop
         id="stop3509"
         offset="0.60000002"
         style="stop-color:#0095da;stop-opacity:1" /><stop
         id="stop3507"
         offset="0.80000001"
         style="stop-color:#0082ca;stop-opacity:1" /><stop
         style="stop-color:#006fb9;stop-opacity:1"
         offset="1"
         id="stop3503" /></linearGradient><clipPath
       clipPathUnits="userSpaceOnUse"
       id="clipPath3183"><path
         d="M 0,768 H 1024 V 0 H 0 Z"
         id="path3185"
         inkscape:connector-curvature="0" /></clipPath><clipPath
       clipPathUnits="userSpaceOnUse"
       id="clipPath3271"><path
         d="M 0,768 H 1024 V 0 H 0 Z"
         id="path3273"
         inkscape:connector-curvature="0" /></clipPath><clipPath
       clipPathUnits="userSpaceOnUse"
       id="clipPath3339"><path
         d="m 764.123,271.5 48,-59.834 44.667,39.667 -38.371,7.208 -0.065,37.659 z"
         id="path3341"
         inkscape:connector-curvature="0" /></clipPath><clipPath
       clipPathUnits="userSpaceOnUse"
       id="clipPath3371"><path
         d="M 0,768 H 1024 V 0 H 0 Z"
         id="path3373"
         inkscape:connector-curvature="0" /></clipPath><clipPath
       clipPathUnits="userSpaceOnUse"
       id="clipPath3395"><path
         d="m 457.769,268.5 47.999,-59.834 6.296,46.875 -0.065,37.659 z"
         id="path3397"
         inkscape:connector-curvature="0" /></clipPath><clipPath
       clipPathUnits="userSpaceOnUse"
       id="clipPath3411"><path
         d="m 159.565,268.5 47.999,-59.834 6.298,46.875 -0.066,37.659 z"
         id="path3413"
         inkscape:connector-curvature="0" /></clipPath><clipPath
       clipPathUnits="userSpaceOnUse"
       id="clipPath3423"><path
         d="M 0,768 H 1024 V 0 H 0 Z"
         id="path3425"
         inkscape:connector-curvature="0" /></clipPath><linearGradient
       inkscape:collect="always"
       xlink:href="#linearGradient3499"
       id="linearGradient3505"
       x1="-35.385696"
       y1="-4.5759025"
       x2="11.964903"
       y2="-4.5759025"
       gradientUnits="userSpaceOnUse" /></defs><sodipodi:namedview
     pagecolor="#ffffff"
     bordercolor="#666666"
     borderopacity="1"
     objecttolerance="10"
     gridtolerance="10"
     guidetolerance="10"
     inkscape:pageopacity="0"
     inkscape:pageshadow="2"
     inkscape:window-width="1366"
     inkscape:window-height="705"
     id="namedview3137"
     showgrid="false"
     fit-margin-left="0.5"
     fit-margin-bottom="0.5"
     fit-margin-top="0.5"
     fit-margin-right="0.5"
     inkscape:zoom="0.57106008"
     inkscape:cx="757.85744"
     inkscape:cy="230.62652"
     inkscape:window-x="-8"
     inkscape:window-y="-8"
     inkscape:window-maximized="1"
     inkscape:current-layer="g3143"><inkscape:grid
       type="xygrid"
       id="grid3456"
       empspacing="5"
       visible="true"
       enabled="true"
       snapvisiblegridlinesonly="true"
       originx="-1289.0269px"
       originy="-27.730108px" /></sodipodi:namedview><g
     id="g3143"
     inkscape:groupmode="layer"
     inkscape:label="Get_Old_Survey-Final"
     transform="matrix(1.25,0,0,-1.25,-1289.0269,620.40213)"><path
       d="m 1210.5563,337.502 c 0,14.64181 -7.6077,19.92762 -21.6758,19.92762 h -8.796 l -29.2973,-99.63806 9.9569,-0.58731 c 35.1705,-0.58732 49.8122,50.98682 49.8122,80.29775 m 409.0965,-49.82586 c 0,8.20871 -5.8594,13.48085 -13.4807,13.48085 -18.1658,0 -24.6126,-29.88459 -28.1364,-43.36543 h 35.1704 c 2.3356,9.95697 6.4467,19.92761 6.4467,29.88458 m -358.096,36.93232 c 0,-64.48132 -46.302,-82.05968 -101.4,-82.05968 h -13.4808 l -18.753,-58.0209 h -49.2249 l 49.8122,172.31442 v 0.58732 h -21.6895 l 4.1111,14.6418 0.5874,0.58731 h 90.2547 c 32.8212,0 59.7828,-11.1316 59.7828,-48.05027 m 274.8754,-14.06814 -76.2002,-111.35697 45.1273,-0.58731 -4.6848,-14.06816 h -109.0078 l 76.1866,110.76965 h -44.54 l 4.6849,15.24279 z m 127.7607,-42.20448 c 0,-8.78235 -1.7619,-17.57836 -4.1111,-25.78706 h -86.731 c -3.5238,-10.54429 -7.6213,-23.43782 -7.6213,-34.58308 0,-9.36966 5.2721,-14.05449 14.0682,-14.05449 15.8164,0 21.6895,23.43781 25.787,35.15672 h 50.3995 c -9.3697,-31.64651 -43.3654,-50.98681 -75.0119,-50.98681 -33.4085,0 -59.1955,16.99105 -59.1955,52.74875 0,46.8893 37.5059,85.5699 84.9825,85.5699 29.8846,0 57.4336,-14.06816 57.4336,-48.06393 m 167.0286,-8.78235 c 0,174.06269 -263.7301,236.76843 -400.8741,236.76843 -134.2212,0 -399.1259,-62.11842 -399.1259,-235.02015 0,-96.70149 88.4928,-162.34378 169.3779,-195.752236 h 0.5873 l 76.7738,264.331086 c 16.4175,56.25896 40.4426,114.86716 109.0077,114.86716 24.0389,0 55.6854,-10.54428 55.6854,-39.85522 0,-16.40374 -12.3062,-31.64652 -29.311,-31.64652 -14.0544,0 -25.787,11.1316 -25.787,25.19976 0,17.00471 12.8935,25.19975 28.1363,25.78706 -4.6848,9.38332 -15.8301,12.89353 -25.787,12.89353 -46.8893,0 -57.4337,-94.93956 -66.8169,-126.58607 h 84.9825 l -36.3313,-126.01244 h -49.2386 l 32.2338,110.18235 h -36.3313 l -49.2248,-167.02862 c -7.6215,-26.37438 -17.5921,-51.57413 -22.2769,-78.535817 58.6082,-18.165677 120.7266,-26.961689 182.2714,-26.961689 136.5567,0 402.0487,59.782832 402.0487,237.369386 m -22.8505,29.29728 c 0,-14.65547 -11.7189,-26.9617 -26.3743,-26.9617 -12.3063,0 -23.4516,11.14527 -23.4516,23.45149 0,2.33558 0.5874,5.27214 1.1747,7.62139 h -1.1747 c -25.1997,-18.76665 -36.9186,-85.5699 -43.9527,-108.43407 h -49.2249 l 32.2339,110.18235 -19.3404,0.5873 5.2722,15.24279 h 66.8169 l -6.4467,-22.27686 c 8.7823,13.48084 22.8504,24.61244 39.8551,24.61244 13.4809,0 24.6125,-10.54429 24.6125,-24.02513"
       style="fill:#007cc2;fill-opacity:1;fill-rule:nonzero;stroke:none;stroke-width:13.6584034"
       id="path3649"
       inkscape:connector-curvature="0" /></g></svg>